# xmcd
#
# Track frame offsets: 
#        216
#        16000
#        33248
#        52689
#        67339
#        81905
#        97660
#        110270
#        126138
#        142829
#        154873
#        170999
#        189827
#        207150
#
# Disc length: 3059 seconds
#
# Revision: 4
# Processed by: cddbd v1.5.2PL0 Copyright (c) Steve Scherf et al.
# Submitted via: ExactAudioCopy v1.1
#
DISCID=ac0bf10e
DTITLE=Scooter Lee - Honky Tonk Twist And Then Some
DYEAR=1995
DGENRE=Country
TTITLE0=Honky Tonk Twist
TTITLE1=Be-Bop-A-Lula
TTITLE2=Old Friend
TTITLE3=Traces
TTITLE4=I'll Two-Step Alone
TTITLE5=He's My Little Jalapeno
TTITLE6=Well-Oiled Lovin' Machine
TTITLE7=Deal With It
TTITLE8=Take It From Me
TTITLE9=Where's Hank Williams (When You Need Him?)
TTITLE10=I Love The Nightlife
TTITLE11=Honky Tonk Twist (Dance Mix)
TTITLE12=Old Friend (Competition Mix)
TTITLE13=I Love The Nightlife (Dance Mix)
EXTD=LABEL =Southern Tracks Records\nID =STCD-00065\nUPC =030277-00
EXTD=65-28\nCOPYRIGHT =1997\n*****\n YEAR: 1997 ID3G: 2
EXTT0=
EXTT1=
EXTT2=
EXTT3=
EXTT4=
EXTT5=
EXTT6=
EXTT7=
EXTT8=
EXTT9=
EXTT10=
EXTT11=
EXTT12=
EXTT13=
PLAYORDER=
